<mxfile host="app.diagrams.net" modified="2022-03-01T15:56:25.953Z" agent="5.0 (Windows NT 10.0; Win64; x64) AppleWebKit/537.36 (KHTML, like Gecko) Chrome/98.0.4758.102 Safari/537.36" etag="GITIlVvf7U2ejFxBZt9D" version="16.6.4" type="github">
  <diagram name="Page-1" id="fc2ac565-0d4e-3f0d-88b0-a54af1634ed7">
    <mxGraphModel dx="1080" dy="478" grid="0" gridSize="10" guides="1" tooltips="1" connect="0" arrows="1" fold="1" page="0" pageScale="1.5" pageWidth="1169" pageHeight="827" backgroundImage="{&quot;src&quot;:&quot;https://cdn-0.imagensemoldes.com.br/wp-content/uploads/2020/11/Grafico-Boi-PNG.png&quot;,&quot;width&quot;:&quot;800&quot;,&quot;height&quot;:&quot;904&quot;,&quot;x&quot;:0,&quot;y&quot;:0}" math="0" shadow="0">
      <root>
        <mxCell id="0" style=";html=1;" />
        <mxCell id="1" style=";html=1;" parent="0" />
        <mxCell id="75" value="&lt;span style=&quot;font-size: 13px&quot;&gt;Nelore&lt;/span&gt;" style="align=left;html=1;rounded=0;fillColor=#f5f5f5;gradientColor=#b3b3b3;strokeColor=#666666;" parent="1" vertex="1">
          <mxGeometry x="421" y="514" width="320" height="20" as="geometry" />
        </mxCell>
        <mxCell id="80" value="Anglus" style="align=left;html=1;rounded=0;fillColor=#f5f5f5;gradientColor=#b3b3b3;strokeColor=#666666;" parent="1" vertex="1">
          <mxGeometry x="421" y="534.0000000000002" width="320" height="20" as="geometry" />
        </mxCell>
        <mxCell id="85" value="Caracu" style="align=left;html=1;rounded=0;fillColor=#f5f5f5;gradientColor=#b3b3b3;strokeColor=#666666;" parent="1" vertex="1">
          <mxGeometry x="420.9999999999999" y="554.0000000000002" width="320.0000000000001" height="20" as="geometry" />
        </mxCell>
        <mxCell id="90" value="InduBrasil" style="align=left;html=1;rounded=0;fillColor=#f5f5f5;gradientColor=#b3b3b3;strokeColor=#666666;" parent="1" vertex="1">
          <mxGeometry x="420.9999999999999" y="574.0000000000005" width="320.0000000000001" height="20" as="geometry" />
        </mxCell>
        <mxCell id="95" value="Sindi" style="align=left;html=1;rounded=0;fillColor=#f5f5f5;gradientColor=#b3b3b3;strokeColor=#666666;" parent="1" vertex="1">
          <mxGeometry x="421.0000000000006" y="594.0000000000007" width="319.9999999999994" height="20" as="geometry" />
        </mxCell>
        <mxCell id="100" value="TabapuÃ£" style="align=left;html=1;rounded=0;fillColor=#f5f5f5;gradientColor=#b3b3b3;strokeColor=#666666;" parent="1" vertex="1">
          <mxGeometry x="421.0000000000006" y="614.0000000000006" width="319.9999999999994" height="20" as="geometry" />
        </mxCell>
        <mxCell id="67c90442a009f359-291" value="" style="align=left;html=1;rounded=0;" parent="1" vertex="1">
          <mxGeometry x="741" y="514" width="840" height="20" as="geometry" />
        </mxCell>
        <mxCell id="4" value="&lt;pre&gt;&lt;b&gt;Jan&lt;/b&gt;&lt;/pre&gt;" style="strokeWidth=1;fontStyle=0;html=1;rounded=0;fillColor=#dae8fc;gradientColor=#7ea6e0;strokeColor=#6c8ebf;" parent="1" vertex="1">
          <mxGeometry x="741" y="494" width="70" height="20" as="geometry" />
        </mxCell>
        <mxCell id="67c90442a009f359-278" value="&lt;pre&gt;&lt;b&gt;Feb&lt;/b&gt;&lt;/pre&gt;" style="strokeWidth=1;fontStyle=0;html=1;rounded=0;fillColor=#dae8fc;gradientColor=#7ea6e0;strokeColor=#6c8ebf;" parent="1" vertex="1">
          <mxGeometry x="811" y="494" width="70" height="20" as="geometry" />
        </mxCell>
        <mxCell id="67c90442a009f359-279" value="&lt;pre&gt;&lt;b&gt;Mar&lt;/b&gt;&lt;/pre&gt;" style="strokeWidth=1;fontStyle=0;html=1;rounded=0;fillColor=#dae8fc;gradientColor=#7ea6e0;strokeColor=#6c8ebf;" parent="1" vertex="1">
          <mxGeometry x="881" y="494" width="70" height="20" as="geometry" />
        </mxCell>
        <mxCell id="67c90442a009f359-280" value="&lt;pre&gt;&lt;b&gt;Apr&lt;/b&gt;&lt;/pre&gt;" style="strokeWidth=1;fontStyle=0;html=1;rounded=0;fillColor=#dae8fc;gradientColor=#7ea6e0;strokeColor=#6c8ebf;" parent="1" vertex="1">
          <mxGeometry x="951" y="494" width="77" height="20" as="geometry" />
        </mxCell>
        <mxCell id="67c90442a009f359-281" value="&lt;pre&gt;&lt;b&gt;Maio&lt;/b&gt;&lt;/pre&gt;" style="strokeWidth=1;fontStyle=0;html=1;rounded=0;fillColor=#dae8fc;gradientColor=#7ea6e0;strokeColor=#6c8ebf;" parent="1" vertex="1">
          <mxGeometry x="1021" y="494" width="70" height="20" as="geometry" />
        </mxCell>
        <mxCell id="67c90442a009f359-282" value="&lt;pre&gt;&lt;b&gt; Jun&lt;/b&gt;&lt;/pre&gt;" style="strokeWidth=1;fontStyle=0;html=1;rounded=0;fillColor=#dae8fc;gradientColor=#7ea6e0;strokeColor=#6c8ebf;" parent="1" vertex="1">
          <mxGeometry x="1088" y="494" width="70" height="20" as="geometry" />
        </mxCell>
        <mxCell id="67c90442a009f359-284" value="&lt;pre&gt;&lt;b&gt;Aug&lt;/b&gt;&lt;/pre&gt;" style="strokeWidth=1;fontStyle=0;html=1;rounded=0;fillColor=#dae8fc;gradientColor=#7ea6e0;strokeColor=#6c8ebf;" parent="1" vertex="1">
          <mxGeometry x="1228" y="494" width="70" height="20" as="geometry" />
        </mxCell>
        <mxCell id="67c90442a009f359-283" value="&lt;pre&gt;&lt;b&gt;July&lt;/b&gt;&lt;/pre&gt;" style="strokeWidth=1;fontStyle=0;html=1;rounded=0;fillColor=#dae8fc;gradientColor=#7ea6e0;strokeColor=#6c8ebf;" parent="1" vertex="1">
          <mxGeometry x="1158" y="494" width="70" height="20" as="geometry" />
        </mxCell>
        <mxCell id="67c90442a009f359-285" value="&lt;pre&gt;&lt;b&gt;Sept&lt;/b&gt;&lt;/pre&gt;" style="strokeWidth=1;fontStyle=0;html=1;rounded=0;fillColor=#dae8fc;gradientColor=#7ea6e0;strokeColor=#6c8ebf;" parent="1" vertex="1">
          <mxGeometry x="1298" y="494" width="70" height="20" as="geometry" />
        </mxCell>
        <mxCell id="67c90442a009f359-286" value="&lt;pre&gt;&lt;b&gt;Oct&lt;/b&gt;&lt;/pre&gt;" style="strokeWidth=1;fontStyle=0;html=1;rounded=0;fillColor=#dae8fc;gradientColor=#7ea6e0;strokeColor=#6c8ebf;" parent="1" vertex="1">
          <mxGeometry x="1368" y="494" width="70" height="20" as="geometry" />
        </mxCell>
        <mxCell id="67c90442a009f359-287" value="&lt;pre&gt;&lt;b&gt;Nov&lt;/b&gt;&lt;/pre&gt;" style="strokeWidth=1;fontStyle=0;html=1;rounded=0;fillColor=#dae8fc;gradientColor=#7ea6e0;strokeColor=#6c8ebf;" parent="1" vertex="1">
          <mxGeometry x="1438" y="494" width="70" height="20" as="geometry" />
        </mxCell>
        <mxCell id="67c90442a009f359-288" value="&lt;pre&gt;&lt;b&gt;Dec&lt;/b&gt;&lt;/pre&gt;" style="strokeWidth=1;fontStyle=0;html=1;rounded=0;fillColor=#dae8fc;gradientColor=#7ea6e0;strokeColor=#6c8ebf;" parent="1" vertex="1">
          <mxGeometry x="1508" y="494" width="73" height="20" as="geometry" />
        </mxCell>
        <mxCell id="67c90442a009f359-292" value="" style="align=left;html=1;rounded=0;" parent="1" vertex="1">
          <mxGeometry x="741" y="534" width="840" height="20" as="geometry" />
        </mxCell>
        <mxCell id="67c90442a009f359-293" value="" style="align=left;html=1;rounded=0;" parent="1" vertex="1">
          <mxGeometry x="741" y="554" width="840" height="20" as="geometry" />
        </mxCell>
        <mxCell id="67c90442a009f359-294" value="" style="align=left;html=1;rounded=0;" parent="1" vertex="1">
          <mxGeometry x="741" y="574" width="840" height="20" as="geometry" />
        </mxCell>
        <mxCell id="67c90442a009f359-295" value="" style="align=left;html=1;rounded=0;" parent="1" vertex="1">
          <mxGeometry x="741" y="594" width="840" height="20" as="geometry" />
        </mxCell>
        <mxCell id="67c90442a009f359-296" value="" style="align=left;html=1;rounded=0;" parent="1" vertex="1">
          <mxGeometry x="741" y="614" width="840" height="20" as="geometry" />
        </mxCell>
        <mxCell id="67c90442a009f359-299" value="" style="whiteSpace=wrap;html=1;strokeWidth=2;fontSize=14;align=center;rounded=0;fillColor=#e51400;fontColor=#ffffff;strokeColor=#B20000;" parent="1" vertex="1">
          <mxGeometry x="741" y="514" width="210" height="20" as="geometry" />
        </mxCell>
        <mxCell id="67c90442a009f359-300" value="" style="whiteSpace=wrap;html=1;strokeWidth=2;fontSize=14;align=center;rounded=0;fillColor=#e51400;fontColor=#ffffff;strokeColor=#B20000;" parent="1" vertex="1">
          <mxGeometry x="811" y="534" width="140" height="20" as="geometry" />
        </mxCell>
        <mxCell id="67c90442a009f359-301" value="" style="whiteSpace=wrap;html=1;strokeWidth=2;fontSize=14;align=center;rounded=0;fillColor=#e51400;fontColor=#ffffff;strokeColor=#B20000;" parent="1" vertex="1">
          <mxGeometry x="949" y="554" width="70" height="20" as="geometry" />
        </mxCell>
        <mxCell id="67c90442a009f359-302" value="" style="whiteSpace=wrap;html=1;strokeWidth=2;fontSize=14;align=center;rounded=0;fillColor=#e51400;fontColor=#ffffff;strokeColor=#B20000;" parent="1" vertex="1">
          <mxGeometry x="1021" y="574" width="210" height="20" as="geometry" />
        </mxCell>
        <mxCell id="67c90442a009f359-303" value="" style="whiteSpace=wrap;html=1;strokeWidth=2;fontSize=14;align=center;rounded=0;glass=0;fillColor=#e51400;fontColor=#ffffff;strokeColor=#B20000;" parent="1" vertex="1">
          <mxGeometry x="1231" y="594" width="140" height="20" as="geometry" />
        </mxCell>
        <mxCell id="67c90442a009f359-304" value="" style="whiteSpace=wrap;html=1;strokeWidth=2;fontSize=14;align=center;rounded=0;fillColor=#e51400;fontColor=#ffffff;strokeColor=#B20000;" parent="1" vertex="1">
          <mxGeometry x="881" y="614" width="210" height="20" as="geometry" />
        </mxCell>
        <mxCell id="2" value="&lt;pre&gt;&lt;font style=&quot;font-size: 14px&quot;&gt;&lt;b&gt;TIPOS DE BOIVINOS NO BRASIL&lt;/b&gt;&lt;/font&gt;&lt;/pre&gt;" style="strokeWidth=1;fontStyle=0;html=1;rounded=0;backgroundOutline=0;comic=0;fillColor=#dae8fc;strokeColor=#6c8ebf;gradientColor=#7ea6e0;" parent="1" vertex="1">
          <mxGeometry x="421" y="494" width="320" height="20" as="geometry" />
        </mxCell>
        <mxCell id="k-wPxzq8uyt49FvIkgI0-135" value="" style="whiteSpace=wrap;html=1;strokeWidth=2;fontSize=14;align=center;rounded=0;fillColor=#e51400;fontColor=#ffffff;strokeColor=#B20000;" vertex="1" parent="1">
          <mxGeometry x="1443" y="554" width="70" height="20" as="geometry" />
        </mxCell>
        <mxCell id="k-wPxzq8uyt49FvIkgI0-136" value="" style="whiteSpace=wrap;html=1;strokeWidth=2;fontSize=14;align=center;rounded=0;fillColor=#e51400;fontColor=#ffffff;strokeColor=#B20000;" vertex="1" parent="1">
          <mxGeometry x="1231" y="574" width="210" height="20" as="geometry" />
        </mxCell>
        <mxCell id="k-wPxzq8uyt49FvIkgI0-137" value="" style="whiteSpace=wrap;html=1;strokeWidth=2;fontSize=14;align=center;rounded=0;fillColor=#e51400;fontColor=#ffffff;strokeColor=#B20000;" vertex="1" parent="1">
          <mxGeometry x="1511" y="614" width="70" height="20" as="geometry" />
        </mxCell>
      </root>
    </mxGraphModel>
  </diagram>
</mxfile>
